<mxfile host="app.diagrams.net" modified="2024-04-09T18:36:11.051Z" agent="Mozilla/5.0 (Windows NT 10.0; Win64; x64; rv:109.0) Gecko/20100101 Firefox/115.0" version="24.2.3" etag="Zd1XSkIMKlI0Ybwgn1Gr" type="github">
  <diagram name="Page-1" id="AJbsbaskFUhs7oxrGESm">
    <mxGraphModel>
      <root>
        <mxCell id="0" />
        <mxCell id="1" parent="0" />
      </root>
    </mxGraphModel>
  </diagram>
</mxfile>
